<svg xmlns="http://www.w3.org/2000/svg"><defs><linearGradient x1="31.717%" y1="96.467%" x2="70.881%" y2="7.838%" id="a"><stop stop-color="#4C27FF" offset="0%"/><stop stop-color="#FF0094" offset="100%"/></linearGradient></defs><g fill-rule="nonzero" fill="none"><path d="M50.984 23.6c0-6.841 5.015-12.056 12.258-12.056 6.116 0 10.402 3.72 11.53 8.535h-5.813c-.764-1.991-2.826-3.509-5.704-3.509-4.12 0-6.809 3.022-6.809 7.018 0 4.083 2.69 7.14 6.81 7.14 3.29 0 5.68-1.754 6.115-3.886H63.01v-4.316h12.196c.299 8.171-4.62 13.119-11.964 13.119-7.274.013-12.258-5.167-12.258-12.044zM76.93 12.939c0-1.728 1.264-2.79 3.028-2.79 1.763 0 3.023 1.062 3.023 2.79s-1.264 2.79-3.023 2.79c-1.76 0-3.027-1.062-3.027-2.79zm.466 4.75h5.15v17.543h-5.15V17.69zM85.007 29.71V10.317h5.151v18.798c0 1.061.53 1.597 1.461 1.597h.632v4.517h-1.755c-3.527 0-5.489-2.092-5.489-5.517zM94.41 17.689h4.852v1.894h.263a5.265 5.265 0 014.585-2.324c2.294 0 4.023.877 5.084 2.39h.233c1.228-1.627 2.891-2.39 5.085-2.39 3.821 0 6.379 2.522 6.379 6.175v11.794h-5.15v-10c0-1.925-.878-3.189-2.66-3.189-1.693 0-2.825 1.395-2.825 3.356v9.833h-5.146V25.096c0-1.793-.965-3.07-2.725-3.07-1.759 0-2.825 1.43-2.825 3.32v9.869h-5.15V17.689zM122.404 26.456c0-5.18 3.787-9.21 9.468-9.21 5.616 0 9.437 4.017 9.437 9.21 0 5.193-3.821 9.21-9.468 9.21-5.646 0-9.437-4.026-9.437-9.21zm13.689 0c0-2.658-1.795-4.548-4.252-4.548-2.456 0-4.22 1.89-4.22 4.548 0 2.658 1.794 4.553 4.22 4.553 2.427 0 4.234-1.895 4.234-4.553h.018zM142.902 17.689h4.852v1.925h.263c.702-1.193 2.36-2.355 4.72-2.355 3.888 0 6.28 2.631 6.28 6.276v11.693h-5.152V25.14c0-1.798-1.061-3.07-2.82-3.07-1.76 0-2.993 1.496-2.993 3.355v9.834h-5.15v-17.57zM160.512 26.557c0-5.513 3.255-9.298 7.976-9.298 2.755 0 4.352 1.495 4.949 2.425h.268v-9.368h5.15v24.912h-5.12v-1.996h-.263c-.5.799-1.961 2.426-4.852 2.426-4.817 0-8.108-3.588-8.108-9.101zm13.29-.1c0-2.79-1.694-4.55-4.05-4.55s-4.023 1.86-4.023 4.55c0 2.688 1.627 4.552 4.053 4.552 2.427 0 4.02-1.96 4.02-4.553z" fill="#1A0038"/><path d="M30.584 30.408A17.729 17.729 0 0032.763 8.02a17.74 17.74 0 00-21.537-6.512 17.731 17.731 0 006.797 34.11h7.142A3.803 3.803 0 0129 39.22a3.745 3.745 0 01-3.743 3.89H3.37c-.584 0-1.057.474-1.057 1.058v4.583c0 .584.473 1.057 1.057 1.057h21.726c5.765 0 10.626-4.71 10.608-10.47a10.438 10.438 0 00-5.12-8.93zM7.02 18.61a11.035 11.035 0 016.459-10.774 11.04 11.04 0 0112.36 2.249 11.033 11.033 0 012.25 12.357 11.039 11.039 0 01-21.07-3.832z" fill="url(#a)"/></g></svg>